<svg xmlns="http://www.w3.org/2000/svg" xmlns:xlink="http://www.w3.org/1999/xlink" style="enable-background:new 0 0 128 128" id="Layer_1" x="0" y="0" version="1.1" viewBox="0 0 128 128" xml:space="preserve"><style type="text/css">.st0{fill:#00d1b2}.st1,.st2{clip-path:url(#SVGID_2_);fill:#479386}.st2{clip-path:url(#SVGID_4_)}.st3{clip-path:url(#SVGID_6_)}.st3,.st4,.st5{fill:#479386}.st4{clip-path:url(#SVGID_8_)}.st5{clip-path:url(#SVGID_10_)}.st6{clip-path:url(#SVGID_12_)}.st6,.st7,.st8{fill:#479386}.st7{clip-path:url(#SVGID_14_)}.st8{clip-path:url(#SVGID_16_)}.st10,.st11,.st9{fill:#479386}.st9{clip-path:url(#SVGID_18_)}.st10{clip-path:url(#SVGID_20_)}.st11{clip-path:url(#SVGID_22_)}.st12{clip-path:url(#SVGID_24_)}.st12,.st13,.st14{fill:#479386}.st13{clip-path:url(#SVGID_26_)}.st14{clip-path:url(#SVGID_28_)}.st15{clip-path:url(#SVGID_30_)}.st15,.st16,.st17{fill:#479386}.st16{clip-path:url(#SVGID_32_)}.st17{clip-path:url(#SVGID_34_)}.st18{clip-path:url(#SVGID_36_)}.st18,.st19,.st20{fill:#479386}.st19{clip-path:url(#SVGID_38_)}.st20{clip-path:url(#SVGID_40_)}.st21{clip-path:url(#SVGID_42_)}.st21,.st22,.st23{fill:#479386}.st22{clip-path:url(#SVGID_44_)}.st23{clip-path:url(#SVGID_46_)}.st24{clip-path:url(#SVGID_48_)}.st24,.st25,.st26{fill:#479386}.st25{clip-path:url(#SVGID_50_)}.st26{clip-path:url(#SVGID_52_)}.st27{fill:#fff}</style><polygon points="20.4 64.1 20.4 9.5 67.7 36.9 115 64.1 67.7 91.5 20.4 118.7" class="st0"/><g><g><defs><path id="SVGID_1_" d="M116.2,62L69,34.6L21.7,7.4C21.3,7.1,20.8,7,20.4,7s-0.9,0.1-1.3,0.4c-0.8,0.5-1.3,1.3-1.3,2.1v54.6v54.6 c0,0.9,0.5,1.8,1.3,2.1c0.4,0.3,0.9,0.4,1.3,0.4s0.9-0.1,1.3-0.4L69,93.5l47.3-27.4c0.8-0.5,1.3-1.3,1.3-2.1S117,62.3,116.2,62z"/></defs><clipPath id="SVGID_2_"><use style="overflow:visible" xlink:href="#SVGID_1_"/></clipPath><rect width="124.3" height="1" x="4.9" y="8.3" class="st1"/></g><g><defs><path id="SVGID_3_" d="M116.2,62L69,34.6L21.7,7.4C21.3,7.1,20.8,7,20.4,7s-0.9,0.1-1.3,0.4c-0.8,0.5-1.3,1.3-1.3,2.1v54.6v54.6 c0,0.9,0.5,1.8,1.3,2.1c0.4,0.3,0.9,0.4,1.3,0.4s0.9-0.1,1.3-0.4L69,93.5l47.3-27.4c0.8-0.5,1.3-1.3,1.3-2.1S117,62.3,116.2,62z"/></defs><clipPath id="SVGID_4_"><use style="overflow:visible" xlink:href="#SVGID_3_"/></clipPath><rect width="124.3" height="1" x="4.9" y="12.8" class="st2"/></g><g><defs><path id="SVGID_5_" d="M116.2,62L69,34.6L21.7,7.4C21.3,7.1,20.8,7,20.4,7s-0.9,0.1-1.3,0.4c-0.8,0.5-1.3,1.3-1.3,2.1v54.6v54.6 c0,0.9,0.5,1.8,1.3,2.1c0.4,0.3,0.9,0.4,1.3,0.4s0.9-0.1,1.3-0.4L69,93.5l47.3-27.4c0.8-0.5,1.3-1.3,1.3-2.1S117,62.3,116.2,62z"/></defs><clipPath id="SVGID_6_"><use style="overflow:visible" xlink:href="#SVGID_5_"/></clipPath><rect width="124.3" height="1" x="4.9" y="17.2" class="st3"/></g><g><defs><path id="SVGID_7_" d="M116.2,62L69,34.6L21.7,7.4C21.3,7.1,20.8,7,20.4,7s-0.9,0.1-1.3,0.4c-0.8,0.5-1.3,1.3-1.3,2.1v54.6v54.6 c0,0.9,0.5,1.8,1.3,2.1c0.4,0.3,0.9,0.4,1.3,0.4s0.9-0.1,1.3-0.4L69,93.5l47.3-27.4c0.8-0.5,1.3-1.3,1.3-2.1S117,62.3,116.2,62z"/></defs><clipPath id="SVGID_8_"><use style="overflow:visible" xlink:href="#SVGID_7_"/></clipPath><rect width="124.3" height="1" x="4.9" y="21.6" class="st4"/></g><g><defs><path id="SVGID_9_" d="M116.2,62L69,34.6L21.7,7.4C21.3,7.1,20.8,7,20.4,7s-0.9,0.1-1.3,0.4c-0.8,0.5-1.3,1.3-1.3,2.1v54.6v54.6 c0,0.9,0.5,1.8,1.3,2.1c0.4,0.3,0.9,0.4,1.3,0.4s0.9-0.1,1.3-0.4L69,93.5l47.3-27.4c0.8-0.5,1.3-1.3,1.3-2.1S117,62.3,116.2,62z"/></defs><clipPath id="SVGID_10_"><use style="overflow:visible" xlink:href="#SVGID_9_"/></clipPath><rect width="124.3" height="1" x="4.9" y="26" class="st5"/></g><g><defs><path id="SVGID_11_" d="M116.2,62L69,34.6L21.7,7.4C21.3,7.1,20.8,7,20.4,7s-0.9,0.1-1.3,0.4c-0.8,0.5-1.3,1.3-1.3,2.1v54.6v54.6 c0,0.9,0.5,1.8,1.3,2.1c0.4,0.3,0.9,0.4,1.3,0.4s0.9-0.1,1.3-0.4L69,93.5l47.3-27.4c0.8-0.5,1.3-1.3,1.3-2.1S117,62.3,116.2,62z"/></defs><clipPath id="SVGID_12_"><use style="overflow:visible" xlink:href="#SVGID_11_"/></clipPath><rect width="124.3" height="1" x="4.9" y="30.6" class="st6"/></g><g><defs><path id="SVGID_13_" d="M116.2,62L69,34.6L21.7,7.4C21.3,7.1,20.8,7,20.4,7s-0.9,0.1-1.3,0.4c-0.8,0.5-1.3,1.3-1.3,2.1v54.6v54.6 c0,0.9,0.5,1.8,1.3,2.1c0.4,0.3,0.9,0.4,1.3,0.4s0.9-0.1,1.3-0.4L69,93.5l47.3-27.4c0.8-0.5,1.3-1.3,1.3-2.1S117,62.3,116.2,62z"/></defs><clipPath id="SVGID_14_"><use style="overflow:visible" xlink:href="#SVGID_13_"/></clipPath><rect width="124.3" height="1" x="4.9" y="35" class="st7"/></g><g><defs><path id="SVGID_15_" d="M116.2,62L69,34.6L21.7,7.4C21.3,7.1,20.8,7,20.4,7s-0.9,0.1-1.3,0.4c-0.8,0.5-1.3,1.3-1.3,2.1v54.6v54.6 c0,0.9,0.5,1.8,1.3,2.1c0.4,0.3,0.9,0.4,1.3,0.4s0.9-0.1,1.3-0.4L69,93.5l47.3-27.4c0.8-0.5,1.3-1.3,1.3-2.1S117,62.3,116.2,62z"/></defs><clipPath id="SVGID_16_"><use style="overflow:visible" xlink:href="#SVGID_15_"/></clipPath><rect width="124.3" height="1" x="4.9" y="39.4" class="st8"/></g><g><defs><path id="SVGID_17_" d="M116.2,62L69,34.6L21.7,7.4C21.3,7.1,20.8,7,20.4,7s-0.9,0.1-1.3,0.4c-0.8,0.5-1.3,1.3-1.3,2.1v54.6v54.6 c0,0.9,0.5,1.8,1.3,2.1c0.4,0.3,0.9,0.4,1.3,0.4s0.9-0.1,1.3-0.4L69,93.5l47.3-27.4c0.8-0.5,1.3-1.3,1.3-2.1S117,62.3,116.2,62z"/></defs><clipPath id="SVGID_18_"><use style="overflow:visible" xlink:href="#SVGID_17_"/></clipPath><rect width="124.3" height="1" x="4.9" y="43.8" class="st9"/></g><g><defs><path id="SVGID_19_" d="M116.2,62L69,34.6L21.7,7.4C21.3,7.1,20.8,7,20.4,7s-0.9,0.1-1.3,0.4c-0.8,0.5-1.3,1.3-1.3,2.1v54.6v54.6 c0,0.9,0.5,1.8,1.3,2.1c0.4,0.3,0.9,0.4,1.3,0.4s0.9-0.1,1.3-0.4L69,93.5l47.3-27.4c0.8-0.5,1.3-1.3,1.3-2.1S117,62.3,116.2,62z"/></defs><clipPath id="SVGID_20_"><use style="overflow:visible" xlink:href="#SVGID_19_"/></clipPath><rect width="124.3" height="1" x="4.9" y="48.3" class="st10"/></g><g><defs><path id="SVGID_21_" d="M116.2,62L69,34.6L21.7,7.4C21.3,7.1,20.8,7,20.4,7s-0.9,0.1-1.3,0.4c-0.8,0.5-1.3,1.3-1.3,2.1v54.6v54.6 c0,0.9,0.5,1.8,1.3,2.1c0.4,0.3,0.9,0.4,1.3,0.4s0.9-0.1,1.3-0.4L69,93.5l47.3-27.4c0.8-0.5,1.3-1.3,1.3-2.1S117,62.3,116.2,62z"/></defs><clipPath id="SVGID_22_"><use style="overflow:visible" xlink:href="#SVGID_21_"/></clipPath><rect width="124.3" height="1" x="4.9" y="52.8" class="st11"/></g><g><defs><path id="SVGID_23_" d="M116.2,62L69,34.6L21.7,7.4C21.3,7.1,20.8,7,20.4,7s-0.9,0.1-1.3,0.4c-0.8,0.5-1.3,1.3-1.3,2.1v54.6v54.6 c0,0.9,0.5,1.8,1.3,2.1c0.4,0.3,0.9,0.4,1.3,0.4s0.9-0.1,1.3-0.4L69,93.5l47.3-27.4c0.8-0.5,1.3-1.3,1.3-2.1S117,62.3,116.2,62z"/></defs><clipPath id="SVGID_24_"><use style="overflow:visible" xlink:href="#SVGID_23_"/></clipPath><rect width="124.3" height="1" x="4.9" y="57.2" class="st12"/></g><g><defs><path id="SVGID_25_" d="M116.2,62L69,34.6L21.7,7.4C21.3,7.1,20.8,7,20.4,7s-0.9,0.1-1.3,0.4c-0.8,0.5-1.3,1.3-1.3,2.1v54.6v54.6 c0,0.9,0.5,1.8,1.3,2.1c0.4,0.3,0.9,0.4,1.3,0.4s0.9-0.1,1.3-0.4L69,93.5l47.3-27.4c0.8-0.5,1.3-1.3,1.3-2.1S117,62.3,116.2,62z"/></defs><clipPath id="SVGID_26_"><use style="overflow:visible" xlink:href="#SVGID_25_"/></clipPath><rect width="124.3" height="1" x="4.9" y="61.6" class="st13"/></g><g><defs><path id="SVGID_27_" d="M116.2,62L69,34.6L21.7,7.4C21.3,7.1,20.8,7,20.4,7s-0.9,0.1-1.3,0.4c-0.8,0.5-1.3,1.3-1.3,2.1v54.6v54.6 c0,0.9,0.5,1.8,1.3,2.1c0.4,0.3,0.9,0.4,1.3,0.4s0.9-0.1,1.3-0.4L69,93.5l47.3-27.4c0.8-0.5,1.3-1.3,1.3-2.1S117,62.3,116.2,62z"/></defs><clipPath id="SVGID_28_"><use style="overflow:visible" xlink:href="#SVGID_27_"/></clipPath><rect width="124.3" height="1" x="4.9" y="66" class="st14"/></g><g><defs><path id="SVGID_29_" d="M116.2,62L69,34.6L21.7,7.4C21.3,7.1,20.8,7,20.4,7s-0.9,0.1-1.3,0.4c-0.8,0.5-1.3,1.3-1.3,2.1v54.6v54.6 c0,0.9,0.5,1.8,1.3,2.1c0.4,0.3,0.9,0.4,1.3,0.4s0.9-0.1,1.3-0.4L69,93.5l47.3-27.4c0.8-0.5,1.3-1.3,1.3-2.1S117,62.3,116.2,62z"/></defs><clipPath id="SVGID_30_"><use style="overflow:visible" xlink:href="#SVGID_29_"/></clipPath><rect width="124.3" height="1" x="4.9" y="70.5" class="st15"/></g><g><defs><path id="SVGID_31_" d="M116.2,62L69,34.6L21.7,7.4C21.3,7.1,20.8,7,20.4,7s-0.9,0.1-1.3,0.4c-0.8,0.5-1.3,1.3-1.3,2.1v54.6v54.6 c0,0.9,0.5,1.8,1.3,2.1c0.4,0.3,0.9,0.4,1.3,0.4s0.9-0.1,1.3-0.4L69,93.5l47.3-27.4c0.8-0.5,1.3-1.3,1.3-2.1S117,62.3,116.2,62z"/></defs><clipPath id="SVGID_32_"><use style="overflow:visible" xlink:href="#SVGID_31_"/></clipPath><rect width="124.3" height="1" x="4.9" y="74.9" class="st16"/></g><g><defs><path id="SVGID_33_" d="M116.2,62L69,34.6L21.7,7.4C21.3,7.1,20.8,7,20.4,7s-0.9,0.1-1.3,0.4c-0.8,0.5-1.3,1.3-1.3,2.1v54.6v54.6 c0,0.9,0.5,1.8,1.3,2.1c0.4,0.3,0.9,0.4,1.3,0.4s0.9-0.1,1.3-0.4L69,93.5l47.3-27.4c0.8-0.5,1.3-1.3,1.3-2.1S117,62.3,116.2,62z"/></defs><clipPath id="SVGID_34_"><use style="overflow:visible" xlink:href="#SVGID_33_"/></clipPath><rect width="124.3" height="1" x="4.9" y="79.4" class="st17"/></g><g><defs><path id="SVGID_35_" d="M116.2,62L69,34.6L21.7,7.4C21.3,7.1,20.8,7,20.4,7s-0.9,0.1-1.3,0.4c-0.8,0.5-1.3,1.3-1.3,2.1v54.6v54.6 c0,0.9,0.5,1.8,1.3,2.1c0.4,0.3,0.9,0.4,1.3,0.4s0.9-0.1,1.3-0.4L69,93.5l47.3-27.4c0.8-0.5,1.3-1.3,1.3-2.1S117,62.3,116.2,62z"/></defs><clipPath id="SVGID_36_"><use style="overflow:visible" xlink:href="#SVGID_35_"/></clipPath><rect width="124.3" height="1" x="4.9" y="83.8" class="st18"/></g><g><defs><path id="SVGID_37_" d="M116.2,62L69,34.6L21.7,7.4C21.3,7.1,20.8,7,20.4,7s-0.9,0.1-1.3,0.4c-0.8,0.5-1.3,1.3-1.3,2.1v54.6v54.6 c0,0.9,0.5,1.8,1.3,2.1c0.4,0.3,0.9,0.4,1.3,0.4s0.9-0.1,1.3-0.4L69,93.5l47.3-27.4c0.8-0.5,1.3-1.3,1.3-2.1S117,62.3,116.2,62z"/></defs><clipPath id="SVGID_38_"><use style="overflow:visible" xlink:href="#SVGID_37_"/></clipPath><rect width="124.3" height="1" x="4.9" y="88.3" class="st19"/></g><g><defs><path id="SVGID_39_" d="M116.2,62L69,34.6L21.7,7.4C21.3,7.1,20.8,7,20.4,7s-0.9,0.1-1.3,0.4c-0.8,0.5-1.3,1.3-1.3,2.1v54.6v54.6 c0,0.9,0.5,1.8,1.3,2.1c0.4,0.3,0.9,0.4,1.3,0.4s0.9-0.1,1.3-0.4L69,93.5l47.3-27.4c0.8-0.5,1.3-1.3,1.3-2.1S117,62.3,116.2,62z"/></defs><clipPath id="SVGID_40_"><use style="overflow:visible" xlink:href="#SVGID_39_"/></clipPath><rect width="124.3" height="1" x="4.9" y="92.7" class="st20"/></g><g><defs><path id="SVGID_41_" d="M116.2,62L69,34.6L21.7,7.4C21.3,7.1,20.8,7,20.4,7s-0.9,0.1-1.3,0.4c-0.8,0.5-1.3,1.3-1.3,2.1v54.6v54.6 c0,0.9,0.5,1.8,1.3,2.1c0.4,0.3,0.9,0.4,1.3,0.4s0.9-0.1,1.3-0.4L69,93.5l47.3-27.4c0.8-0.5,1.3-1.3,1.3-2.1S117,62.3,116.2,62z"/></defs><clipPath id="SVGID_42_"><use style="overflow:visible" xlink:href="#SVGID_41_"/></clipPath><rect width="124.3" height="1" x="4.9" y="97.1" class="st21"/></g><g><defs><path id="SVGID_43_" d="M116.2,62L69,34.6L21.7,7.4C21.3,7.1,20.8,7,20.4,7s-0.9,0.1-1.3,0.4c-0.8,0.5-1.3,1.3-1.3,2.1v54.6v54.6 c0,0.9,0.5,1.8,1.3,2.1c0.4,0.3,0.9,0.4,1.3,0.4s0.9-0.1,1.3-0.4L69,93.5l47.3-27.4c0.8-0.5,1.3-1.3,1.3-2.1S117,62.3,116.2,62z"/></defs><clipPath id="SVGID_44_"><use style="overflow:visible" xlink:href="#SVGID_43_"/></clipPath><rect width="124.3" height="1" x="4.9" y="101.5" class="st22"/></g><g><defs><path id="SVGID_45_" d="M116.2,62L69,34.6L21.7,7.4C21.3,7.1,20.8,7,20.4,7s-0.9,0.1-1.3,0.4c-0.8,0.5-1.3,1.3-1.3,2.1v54.6v54.6 c0,0.9,0.5,1.8,1.3,2.1c0.4,0.3,0.9,0.4,1.3,0.4s0.9-0.1,1.3-0.4L69,93.5l47.3-27.4c0.8-0.5,1.3-1.3,1.3-2.1S117,62.3,116.2,62z"/></defs><clipPath id="SVGID_46_"><use style="overflow:visible" xlink:href="#SVGID_45_"/></clipPath><rect width="124.3" height="1" x="4.9" y="106.1" class="st23"/></g><g><defs><path id="SVGID_47_" d="M116.2,62L69,34.6L21.7,7.4C21.3,7.1,20.8,7,20.4,7s-0.9,0.1-1.3,0.4c-0.8,0.5-1.3,1.3-1.3,2.1v54.6v54.6 c0,0.9,0.5,1.8,1.3,2.1c0.4,0.3,0.9,0.4,1.3,0.4s0.9-0.1,1.3-0.4L69,93.5l47.3-27.4c0.8-0.5,1.3-1.3,1.3-2.1S117,62.3,116.2,62z"/></defs><clipPath id="SVGID_48_"><use style="overflow:visible" xlink:href="#SVGID_47_"/></clipPath><rect width="124.3" height="1" x="4.9" y="110.5" class="st24"/></g><g><defs><path id="SVGID_49_" d="M116.2,62L69,34.6L21.7,7.4C21.3,7.1,20.8,7,20.4,7s-0.9,0.1-1.3,0.4c-0.8,0.5-1.3,1.3-1.3,2.1v54.6v54.6 c0,0.9,0.5,1.8,1.3,2.1c0.4,0.3,0.9,0.4,1.3,0.4s0.9-0.1,1.3-0.4L69,93.5l47.3-27.4c0.8-0.5,1.3-1.3,1.3-2.1S117,62.3,116.2,62z"/></defs><clipPath id="SVGID_50_"><use style="overflow:visible" xlink:href="#SVGID_49_"/></clipPath><rect width="124.3" height="1" x="4.9" y="114.9" class="st25"/></g><g><defs><path id="SVGID_51_" d="M116.2,62L69,34.6L21.7,7.4C21.3,7.1,20.8,7,20.4,7s-0.9,0.1-1.3,0.4c-0.8,0.5-1.3,1.3-1.3,2.1v54.6v54.6 c0,0.9,0.5,1.8,1.3,2.1c0.4,0.3,0.9,0.4,1.3,0.4s0.9-0.1,1.3-0.4L69,93.5l47.3-27.4c0.8-0.5,1.3-1.3,1.3-2.1S117,62.3,116.2,62z"/></defs><clipPath id="SVGID_52_"><use style="overflow:visible" xlink:href="#SVGID_51_"/></clipPath><rect width="124.3" height="1" x="4.9" y="119.3" class="st26"/></g></g><path d="M20.4,9.5l47.3,27.4L115,64.2L67.7,91.5l-47.3,27.4V64.1L20.4,9.5 M20.4,7c-0.4,0-0.9,0.1-1.3,0.4	c-0.8,0.5-1.3,1.3-1.3,2.1v54.6v54.6c0,0.9,0.5,1.8,1.3,2.1c0.4,0.3,0.9,0.4,1.3,0.4s0.9-0.1,1.3-0.4L69,93.5l47.3-27.4	c0.8-0.5,1.3-1.3,1.3-2.1s-0.5-1.8-1.3-2.1L69,34.6L21.7,7.4C21.3,7.1,20.9,7,20.4,7L20.4,7z" class="st0"/><g><path d="M20.4,119.9c-0.3,0-0.4,0-0.6-0.1c-0.4-0.3-0.6-0.6-0.6-1.1V9.5c0-0.5,0.3-0.9,0.6-1.1 c0.3-0.1,0.4-0.1,0.6-0.1s0.4,0,0.6,0.1l37.6,21.7c0.4,0.3,0.6,0.6,0.6,1.1v12.2c0,0.4-0.3,0.9-0.6,1c-0.3,0.1-0.5,0.3-0.6,0.3 c-0.1,0-0.4,0-0.5-0.1L33.8,33.8v17.3l24.5,4.8c0.6,0.1,1,0.6,1,1.3v10.6c0,0.4-0.1,0.6-0.4,0.9C58.6,68.9,58.4,69,58,69l-23.8-1.8 v44.1c0,0.5-0.3,0.9-0.6,1.1l-12.5,7.2C20.9,119.9,20.7,119.9,20.4,119.9z" class="st27"/><g><path d="M20.4,9.5L58,31.2v12.2L32.5,32v20.3l25.5,5v10.6L32.9,66v45.4l-12.5,7.2V64.1L20.4,9.5 M20.4,7 c-0.4,0-0.9,0.1-1.3,0.4c-0.8,0.5-1.3,1.3-1.3,2.1v54.6v54.6c0,0.9,0.5,1.8,1.3,2.1c0.4,0.3,0.9,0.4,1.3,0.4s0.9-0.1,1.3-0.4 l12.5-7.2c0.8-0.5,1.3-1.3,1.3-2.1V68.8l22.4,1.6H58c0.6,0,1.3-0.3,1.8-0.6c0.5-0.5,0.8-1.1,0.8-1.9V57.3c0-1.3-0.9-2.3-2-2.5 l-23.3-4.7V35.9L57,45.7c0.4,0.1,0.6,0.3,1,0.3c0.5,0,1-0.1,1.4-0.4c0.8-0.5,1.1-1.3,1.1-2.1V31.2c0-0.9-0.5-1.8-1.3-2.1L21.7,7.4 C21.3,7.1,20.9,7,20.4,7L20.4,7z" class="st0"/></g></g><g><g><path d="M65.8,93.8c-0.3,0-0.4,0-0.6-0.1c-0.4-0.3-0.6-0.6-0.6-1.1V35.7c0-0.5,0.3-0.9,0.6-1.1 c0.3-0.1,0.4-0.1,0.6-0.1c0.3,0,0.4,0,0.6,0.1L115.6,63c0.4,0.3,0.6,0.6,0.6,1.1s-0.3,0.9-0.6,1.1L66.4,93.6 C66.2,93.7,65.9,93.8,65.8,93.8z M77,76.7L98,63.6L77.2,52.4L77,76.7z" class="st27"/></g><g><path d="M65.8,35.7l1.9,1.1L115,64.2L67.7,91.5l-1.9,1.1V35.7 M75.8,79l24.8-15.5L76,50.4L75.8,79 M65.8,33.2 c-0.4,0-0.9,0.1-1.3,0.4c-0.8,0.5-1.3,1.3-1.3,2.1v56.8c0,0.9,0.5,1.8,1.3,2.1c0.4,0.3,0.9,0.4,1.3,0.4c0.4,0,0.9-0.1,1.3-0.4 l1.9-1.1l47.3-27.4c0.8-0.5,1.3-1.3,1.3-2.1c0-0.9-0.5-1.8-1.3-2.1L69,34.6l-1.9-1.1C66.7,33.3,66.2,33.2,65.8,33.2L65.8,33.2z M78.3,74.4l0.3-19.9l17,9.2L78.3,74.4L78.3,74.4z" class="st0"/></g></g></svg>